<?xml version="1.0" encoding="UTF-8" standalone="no"?>
<!-- Created with Inkscape (http://www.inkscape.org/) -->

<svg xmlns:dc="http://purl.org/dc/elements/1.1/" xmlns:cc="http://creativecommons.org/ns#" xmlns:rdf="http://www.w3.org/1999/02/22-rdf-syntax-ns#" xmlns:svg="http://www.w3.org/2000/svg" xmlns="http://www.w3.org/2000/svg" xmlns:sodipodi="http://sodipodi.sourceforge.net/DTD/sodipodi-0.dtd" xmlns:inkscape="http://www.inkscape.org/namespaces/inkscape" width="256" height="256" viewBox="0 0 256 256" version="1.1" id="svg8" inkscape:version="0.92.4 (5da689c313, 2019-01-14)" sodipodi:docname="NekoGaming_1.svg" inkscape:export-filename="NekoGaming_1.png" inkscape:export-xdpi="96" inkscape:export-ydpi="96" style="enable-background:new">
  <title id="title6690">Neko Emblem</title>
  <defs id="defs2" />
  <sodipodi:namedview id="base" pagecolor="black" bordercolor="#666666" borderopacity="1.0" inkscape:pageopacity="0" inkscape:pageshadow="2" inkscape:zoom="0.35" inkscape:cx="400" inkscape:cy="560" inkscape:document-units="px" inkscape:current-layer="layer1" showgrid="false" units="px" showguides="true" inkscape:guide-bbox="true">
    <sodipodi:guide position="800,800" orientation="0,1" id="guide837" inkscape:locked="false" inkscape:label="" inkscape:color="rgb(0,0,255)" />
    <sodipodi:guide position="200,800" orientation="1,0" id="guide842" inkscape:locked="false" inkscape:label="" inkscape:color="rgb(0,0,255)" />
    <sodipodi:guide position="200,200" orientation="0,1" id="guide844" inkscape:locked="false" inkscape:label="" inkscape:color="rgb(0,0,255)" />
    <sodipodi:guide position="800,200" orientation="1,0" id="guide846" inkscape:locked="false" inkscape:label="" inkscape:color="rgb(0,0,255)" />
  </sodipodi:namedview>
  <metadata id="metadata5">
    <rdf:RDF>
      <cc:Work rdf:about="">
        <dc:format>image/svg+xml</dc:format>
        <dc:type rdf:resource="http://purl.org/dc/dcmitype/StillImage" />
        <dc:title>Neko Emblem</dc:title>
      </cc:Work>
    </rdf:RDF>
  </metadata>
  <g inkscape:label="Image" inkscape:groupmode="layer" id="layer1" transform="translate(0,-781.275)">
    <path style="display:inline;opacity:1;fill:white;fill-opacity:1;stroke:none;stroke-width:4.441113;stroke-linecap:butt;stroke-linejoin:round;stroke-miterlimit:4;stroke-dasharray:none;stroke-opacity:1;paint-order:markers stroke fill" d="m 51.232,833.918 c 0,0 -1.0524,28.83 8.9266,74.206 0.081,0.368 0.1582,0.713 0.2378,1.068 -0.3018,3.075 -0.3968,6.167 -0.2848,9.255 1.7074,36.345 31.3128,65.211 67.8884,66.191 36.575,-0.98 66.181,-29.846 67.888,-66.191 0.112,-3.088 0.02,-6.18 -0.284,-9.255 0.08,-0.355 0.156,-0.7 0.237,-1.068 9.979,-45.376 8.927,-74.206 8.927,-74.206 0,0 -20.375,0.331 -61.217,14.196 -4.704,-1.242 -9.526,-1.991 -14.387,-2.236 -0.388,0 -0.776,0 -1.164,0 -0.389,0 -0.777,0 -1.165,0 -4.86,0.245 -9.683,0.994 -14.387,2.236 C 71.6075,834.249 51.232,833.918 51.232,833.918 Z m 5.4421,15.543 15.2619,27.248 c -3.6156,5.374 -6.4604,11.225 -8.4512,17.38 -1.7109,-3.121 -8.3858,-17.203 -6.8107,-44.628 z m 142.6519,0 c 1.574,27.425 -5.1,41.507 -6.812,44.628 -1.99,-6.155 -4.834,-12.006 -8.45,-17.38 z M 128,855.459 c 0.07,0 0.135,0 0.202,0 32.971,1.48 58.502,29.463 57.026,62.501 -1.426,31.015 -26.271,55.829 -57.228,57.111 -30.9572,-1.282 -55.802,-26.096 -57.2284,-57.111 -1.476,-33.038 24.0551,-61.021 57.0264,-62.5 0.07,0 0.135,0 0.202,0 z" id="path822" inkscape:connector-curvature="0" />
  </g>
</svg>
