<?xml version="1.0" encoding="UTF-8" standalone="no"?>
<!-- Created with Inkscape (http://www.inkscape.org/) -->

<svg xmlns:dc="http://purl.org/dc/elements/1.1/" xmlns:cc="http://creativecommons.org/ns#" xmlns:rdf="http://www.w3.org/1999/02/22-rdf-syntax-ns#" xmlns:svg="http://www.w3.org/2000/svg" xmlns="http://www.w3.org/2000/svg" xmlns:sodipodi="http://sodipodi.sourceforge.net/DTD/sodipodi-0.dtd" xmlns:inkscape="http://www.inkscape.org/namespaces/inkscape" width="1280" height="720" viewBox="0 0 1280 720" version="1.1" id="svg8" inkscape:version="0.92.4 (5da689c313, 2019-01-14)" sodipodi:docname="thumb.svg" inkscape:export-filename="thumb.png" inkscape:export-xdpi="96" inkscape:export-ydpi="96" style="enable-background:new">
  <title id="title6690">Neko Emblem</title>
  <defs id="defs2" />
  <sodipodi:namedview id="base" pagecolor="black" bordercolor="#666666" borderopacity="1.0" inkscape:pageopacity="0" inkscape:pageshadow="2" inkscape:zoom="0.35" inkscape:cx="400" inkscape:cy="560" inkscape:document-units="px" inkscape:current-layer="layer1" showgrid="false" units="px" showguides="true" inkscape:guide-bbox="true">
    <sodipodi:guide position="800,800" orientation="0,1" id="guide837" inkscape:locked="false" inkscape:label="" inkscape:color="rgb(0,0,255)" />
    <sodipodi:guide position="200,800" orientation="1,0" id="guide842" inkscape:locked="false" inkscape:label="" inkscape:color="rgb(0,0,255)" />
    <sodipodi:guide position="200,200" orientation="0,1" id="guide844" inkscape:locked="false" inkscape:label="" inkscape:color="rgb(0,0,255)" />
    <sodipodi:guide position="800,200" orientation="1,0" id="guide846" inkscape:locked="false" inkscape:label="" inkscape:color="rgb(0,0,255)" />
  </sodipodi:namedview>
  <metadata id="metadata5">
    <rdf:RDF>
      <cc:Work rdf:about="">
        <dc:format>image/svg+xml</dc:format>
        <dc:type rdf:resource="http://purl.org/dc/dcmitype/StillImage" />
        <dc:title>Neko Emblem</dc:title>
      </cc:Work>
    </rdf:RDF>
  </metadata>
  <g inkscape:label="Image" inkscape:groupmode="layer" id="layer1" transform="translate(0,-317.275)">
    <rect style="fill:#0080ff;fill-opacity:1;stroke:black;stroke-width:197.14592;stroke-linecap:butt;stroke-linejoin:round;stroke-miterlimit:4;stroke-dasharray:none;stroke-opacity:1;paint-order:stroke fill markers" id="rect1405" width="1280" height="720" x="0" y="317.275" />
    <path style="display:inline;opacity:1;fill:white;fill-opacity:1;stroke:none;stroke-width:12.49063;stroke-linecap:butt;stroke-linejoin:round;stroke-miterlimit:4;stroke-dasharray:none;stroke-opacity:1;paint-order:markers stroke fill" d="m 424.09,465.325 c 0,0 -2.96,81.084 25.106,208.705 0.228,1.033 0.445,2.004 0.669,3.003 -0.849,8.649 -1.116,17.344 -0.801,26.028 4.802,102.221 88.067,183.406 190.935,186.164 102.868,-2.758 186.135,-83.943 190.936,-186.164 0.315,-8.684 0.05,-17.379 -0.8,-26.028 0.224,-0.999 0.44,-1.97 0.667,-3.003 28.068,-127.621 25.109,-208.705 25.109,-208.705 0,0 -57.307,0.93 -172.173,39.926 -13.231,-3.493 -26.794,-5.601 -40.464,-6.29 -1.091,0 -2.182,0 -3.275,0.02 -1.092,-0.02 -2.183,-0.02 -3.275,-0.02 -13.67,0.689 -27.233,2.797 -40.463,6.29 C 481.396,466.255 424.09,465.325 424.09,465.325 Z m 15.306,43.713 42.924,76.635 c -10.169,15.116 -18.17,31.571 -23.769,48.883 -4.812,-8.778 -23.585,-48.384 -19.155,-125.518 z m 401.207,0 c 4.429,77.134 -14.343,116.74 -19.157,125.518 -5.598,-17.312 -13.597,-33.767 -23.766,-48.883 z m -200.604,16.87 c 0.19,0 0.38,0.02 0.57,0.02 92.729,4.163 164.537,82.864 160.385,175.785 -4.01,87.23 -73.887,157.017 -160.955,160.623 C 552.933,858.73 483.057,788.943 479.045,701.713 474.894,608.792 546.7,530.09 639.431,525.93 c 0.19,0 0.38,-0.02 0.568,-0.02 z" id="path822" inkscape:connector-curvature="0" />
  </g>
</svg>
